<?xml version="1.0" ?><!-- Uploaded to: SVG Repo, www.svgrepo.com, Generator: SVG Repo Mixer Tools -->
<svg width="800px" height="800px" viewBox="0 0 100 100" data-name="Layer 1" id="Layer_1" xmlns="http://www.w3.org/2000/svg"><defs><style>.cls-1{fill:#1d1d1b;}</style></defs><path class="cls-1" d="M74.44,16.65A33.49,33.49,0,0,0,62.79,5.3,35.28,35.28,0,0,0,41.68.88a.6.6,0,0,0-.19.06l-3.2,1.83H33.94L31.74,1a.51.51,0,0,0-.31-.11H26a.5.5,0,0,0-.5.5v9.4a.51.51,0,0,0,.5.5h5.28a.51.51,0,0,0,.24-.07c3.63-2,7.77-1.94,10.3.23A7.09,7.09,0,0,1,44,15.49a.49.49,0,0,0,.49.4h0V50.5h.1a2.91,2.91,0,0,0-1.31,2.42V92.58A3.31,3.31,0,0,1,43,94.15L42,95.82a2.3,2.3,0,0,0,0,2.3,2.4,2.4,0,0,0,2.09,1.18H56.47V52.92A3,3,0,0,0,53.63,50V16h1.18a.63.63,0,0,0,.36-.14.54.54,0,0,0,.14-.36l0-5.94a16.09,16.09,0,0,1,4.86.44A17.75,17.75,0,0,1,70.3,17.19a.49.49,0,0,0,.41.22H74a.48.48,0,0,0,.43-.26A.47.47,0,0,0,74.44,16.65Zm-48-14.77h4.45v8.4H26.48Zm5.45,8V2.43l1.52,1.23a.49.49,0,0,0,.31.11h4.17V8.83A11.55,11.55,0,0,0,31.93,9.9Zm23.54,43V98.3H44.15a1.42,1.42,0,0,1-1.23-.68,1.3,1.3,0,0,1,0-1.32l.92-1.66a4,4,0,0,0,.36-.88H47.8v-1H44.35a1.1,1.1,0,0,0,0-.18V91.52H47.8v-1H44.37V89.28H47.8v-1H44.37V87H47.8V86H44.37V84.8H47.8v-1H44.37V82.56H47.8v-1H44.37V80.31H47.8v-1H44.37V78.07H47.8v-1H44.37V75.83H47.8v-1H44.37V73.59H47.8v-1H44.37V71.35H47.8v-1H44.37V69.11H47.8v-1H44.37V66.86H47.8v-1H44.37V64.62H47.8v-1H44.37V62.38H47.8v-1H44.37V60.14H47.8v-1H44.37V57.9H47.8v-1H44.37V55.66H47.8v-1H44.37V53.42H47.8v-1H44.44A2,2,0,0,1,46.35,51h7.14A2,2,0,0,1,55.47,52.92ZM52.63,50H46.35a3.18,3.18,0,0,0-.77.11V15.9l7.05,0ZM71,16.41A18.66,18.66,0,0,0,60.37,9a17.47,17.47,0,0,0-5.65-.44.5.5,0,0,0-.46.5L54.31,15l-9.38-.06a7.55,7.55,0,0,0-6-5.91V3.56l3-1.7a34.25,34.25,0,0,1,20.4,4.31A32.5,32.5,0,0,1,73.11,16.41Z"/></svg>